<svg id="Layer_1" xmlns="http://www.w3.org/2000/svg" viewBox="0 0 800 823.4"><style>.st0{fill:#3c4c58}</style><path class="st0" d="M659.2 597.3c-.8 0-1.5-.1-2.3-.2l-20.3-3.9c-6.5-1.2-10.8-7.6-9.5-14.1l3.9-20.3c1.2-6.5 7.6-10.8 14.1-9.6l20.3 3.9c3.2.6 5.9 2.4 7.7 5.1 1.8 2.7 2.5 5.9 1.9 9l-3.9 20.3c-.6 3.2-2.4 5.9-5.1 7.7-2.1 1.4-4.4 2.1-6.8 2.1zm-.7-8.5c.9.2 1.9 0 2.7-.6.8-.5 1.3-1.4 1.5-2.3l3.9-20.3c.2-.9 0-1.9-.6-2.7-.5-.8-1.4-1.3-2.3-1.5l-20.3-3.9c-2-.4-3.9.9-4.2 2.9l-3.9 20.3c-.4 2 .9 3.9 2.9 4.2l20.3 3.9zM122.9 116.2c-2.4 0-4.8-.7-6.9-2.2-2.6-1.8-4.4-4.6-4.9-7.8l-7.4-42.3c-1.1-6.5 3.2-12.8 9.8-13.9l10.6-1.9c3.2-.6 6.4.2 9 2 2.6 1.8 4.4 4.6 4.9 7.8l7.4 42.3c1.1 6.5-3.2 12.8-9.8 13.9L125 116c-.7.1-1.4.2-2.1.2zm12-6.2zm-8.8-53.6c-.2 0-.4 0-.6.1l-10.6 1.9c-2 .3-3.3 2.2-2.9 4.2l7.4 42.3c.2 1 .7 1.8 1.5 2.3.8.6 1.8.8 2.7.6l10.6-1.9c2-.3 3.3-2.2 2.9-4.2l-7.4-42.3c-.2-1-.7-1.8-1.5-2.3-.6-.5-1.3-.7-2.1-.7zm189.7 702.5c-10.8 0-19.6-8.8-19.6-19.6s8.8-19.6 19.6-19.6 19.6 8.8 19.6 19.6c0 10.9-8.8 19.6-19.6 19.6zm0-30.7c-6.1 0-11.1 5-11.1 11.1s5 11.1 11.1 11.1 11.1-5 11.1-11.1-5-11.1-11.1-11.1zM154.2 462c-10.8 0-19.6-8.8-19.6-19.6s8.8-19.6 19.6-19.6 19.6 8.8 19.6 19.6c-.1 10.9-8.8 19.6-19.6 19.6zm0-30.7c-6.1 0-11.1 5-11.1 11.1s5 11.1 11.1 11.1 11.1-5 11.1-11.1-5-11.1-11.1-11.1zM563.5 69.4c-10.8 0-19.6-8.8-19.6-19.6s8.8-19.6 19.6-19.6 19.6 8.8 19.6 19.6c-.1 10.8-8.8 19.6-19.6 19.6zm0-30.8c-6.1 0-11.1 5-11.1 11.1s5 11.1 11.1 11.1 11.1-5 11.1-11.1-5-11.1-11.1-11.1zM269.3 568.1c1.1-1.4 3-2 4.8-1.4 15.8 5.7 24.2 23.4 18.5 39.3-5.8 15.9-23.4 24.2-39.3 18.5-2.2-.8-3.3-3.2-2.5-5.4.8-2.2 3.2-3.3 5.4-2.5 11.5 4.1 24.3-1.8 28.5-13.4 4.1-11.5-1.8-24.3-13.4-28.5-2.2-.8-3.3-3.2-2.5-5.4 0-.4.2-.8.5-1.2zm-144.5 225c-.9 0-1.8-.3-2.5-.8-1.9-1.4-2.2-4-.8-5.9 3.6-4.7 5.1-10.6 4.2-16.4-.8-5.9-3.9-11.1-8.6-14.6-4.7-3.6-10.6-5.1-16.4-4.2-5.9.8-11.1 3.9-14.6 8.6-1.4 1.9-4 2.2-5.9.8s-2.2-4-.8-5.9c4.9-6.5 12.1-10.8 20.2-11.9 8.1-1.1 16.2.9 22.7 5.8 6.5 4.9 10.8 12.1 11.9 20.2 1.1 8.1-.9 16.2-5.8 22.7-1.1 1.1-2.3 1.6-3.6 1.6zm629.8-350.7c-.9 0-1.8-.3-2.5-.8-1.9-1.4-2.2-4-.8-5.9 3.6-4.7 5.1-10.6 4.2-16.4-.8-5.9-3.9-11.1-8.6-14.6-4.7-3.6-10.6-5.1-16.4-4.2-5.9.8-11.1 3.9-14.6 8.6-1.4 1.9-4 2.2-5.9.8s-2.2-4-.8-5.9c4.9-6.5 12.1-10.8 20.2-11.9 8.1-1.1 16.2.9 22.7 5.8 6.5 4.9 10.8 12.1 11.9 20.2 1.1 8.1-.9 16.2-5.8 22.7-1.1 1.1-2.3 1.6-3.6 1.6zm-368-164.5c-1.3 0-2.5-.6-3.3-1.6L356.8 243c-1.1-1.3-1.2-3.2-.4-4.7l20.5-37.3c.7-1.2 1.9-2 3.3-2.2 1.4-.1 2.8.5 3.6 1.6l26.5 33.3c1.1 1.3 1.2 3.2.4 4.7l-20.4 37.3c-.7 1.2-1.9 2-3.3 2.2h-.4zM365.1 240l20.8 26.1 16.1-29.3-20.8-26.1-16.1 29.3zM75.3 349.1c-.7 0-1.3-.2-1.9-.5-1.5-.8-2.4-2.4-2.3-4.1l5.6-60c.1-1.4.9-2.6 2.2-3.3 1.2-.7 2.7-.7 4 0l39.4 20.6c1.2.6 2.1 1.9 2.2 3.2.2 1.4-.4 2.7-1.4 3.7l-45 39.4c-.8.7-1.8 1-2.8 1zm9.3-57.5l-4 43.2 32.4-28.4-28.4-14.8zm455.1 469.9c-1.2 0-2.4-.5-3.2-1.5l-28.6-34.1c-.9-1.1-1.2-2.5-.8-3.8.4-1.3 1.4-2.4 2.7-2.8l39.4-13.3c1.4-.5 3-.2 4.2.9 1.1 1 1.6 2.6 1.3 4.1l-10.9 47.5c-.4 1.6-1.6 2.8-3.1 3.2-.3-.2-.6-.2-1-.2zm-21.4-36.3l19.1 22.8 7.3-31.9-26.4 9.1zm-20.4-234.1h-49.7c-2.3 0-4.2-1.9-4.2-4.2 0-2.3 1.9-4.2 4.2-4.2h45.5V440c0-2.3 1.9-4.2 4.2-4.2s4.2 1.9 4.2 4.2v46.9c0 2.3-1.9 4.2-4.2 4.2zm276-390.7h-35.6c-1.5 0-2.9-.8-3.7-2.2-.7-1.3-.7-3 .1-4.3l35.6-56.2c1-1.6 2.9-2.3 4.7-1.8 1.8.5 3 2.2 3 4v56.2c.1 2.4-1.8 4.3-4.1 4.3zM746 92h23.7V54.5L746 92zM559.3 282.2c-2 0-3.7-1.4-4.1-3.4L544 220.7c-.4-2.3 1.1-4.5 3.3-4.9 2.3-.4 4.5 1.1 4.9 3.3l11.2 58.1c.4 2.3-1.1 4.5-3.3 4.9-.3.1-.5.1-.8.1zM419.1 70.8c-.8 0-1.6-.2-2.3-.7l-48.2-31.9c-1.9-1.3-2.5-3.9-1.2-5.8s3.9-2.5 5.8-1.2l48.2 31.9c1.9 1.3 2.5 3.9 1.2 5.8-.7 1.2-2.1 1.9-3.5 1.9zM318.4 398.2l-12.8-5.3c-1.6-.7-2.4-2.5-1.7-4.1l5.3-12.8c.7-1.6 2.5-2.4 4.1-1.7l12.8 5.3c1.6.7 2.4 2.5 1.7 4.1l-5.3 12.8c-.7 1.6-2.5 2.4-4.1 1.7zm182.3 215.5l-11.6 7.6c-1.4.9-3.4.5-4.3-.9l-7.6-11.6c-.9-1.4-.5-3.4.9-4.3l11.6-7.6c1.4-.9 3.4-.5 4.3.9l7.6 11.6c1 1.4.6 3.4-.9 4.3z"/><circle class="st0" cx="239.6" cy="131.8" r="10.5"/><circle class="st0" cx="700.7" cy="238.4" r="10.5"/><path class="st0" d="M756 709.2c.2 1.1 0 2.3-.7 3.2l-30.2 42c-1.4 1.9-4 2.3-5.9 1-1.9-1.4-2.3-4-1-5.9l30.2-42c1.4-1.9 4-2.3 5.9-1 1 .7 1.5 1.7 1.7 2.7zM25.7 610.5c-1.2 0-2.3-.5-3.2-1.4-1.5-1.7-1.4-4.4.4-5.9l41.3-36.6c1.7-1.5 4.4-1.4 5.9.4 1.5 1.7 1.4 4.4-.4 5.9l-41.3 36.6c-.7.6-1.7 1-2.7 1z"/></svg>