<svg width="95" height="72" viewBox="0 0 95 72" xmlns="http://www.w3.org/2000/svg"><title>“</title><path d="M94.828 51.694c0-10.864-7.601-18.192-17.23-18.192-1.773 0-4.053.506-4.813.758 1.52-6.57 7.094-14.402 13.682-19.708 1.52-1.263 2.28-3.285 2.28-5.306 0-3.285-3.294-8.338-9.121-8.338-2.534 0-5.068.758-6.841 2.527-12.669 11.37-20.523 26.53-20.523 42.7 0 16.424 10.895 25.773 22.803 25.773 10.642 0 19.763-9.096 19.763-20.214zm-51.434 0c0-10.864-7.601-18.192-17.23-18.192-1.773 0-4.053.506-4.813.758 1.52-6.57 7.094-14.402 13.682-19.708 1.52-1.263 2.28-3.285 2.28-5.306 0-3.537-3.04-8.338-9.121-8.338-2.534 0-5.068.758-6.841 2.527C8.682 14.805.828 29.965.828 46.135c0 16.424 10.895 25.773 22.803 25.773 10.642 0 19.763-9.096 19.763-20.214z" fill="#feb" fill-rule="evenodd"/></svg>