<svg width="46" height="37" viewBox="0 0 46 37" xmlns="http://www.w3.org/2000/svg" xmlns:xlink="http://www.w3.org/1999/xlink"><title>Digital Downloads</title><defs><path id="a" d="M3.438.615h-3.2v7.379h3.2V.614z"/><path id="c" d="M0 .649v32.329h45.946V.648H0z"/></defs><g fill="none" fill-rule="evenodd"><g transform="translate(29.053 .19)"><mask id="b" fill="#fff"><use xlink:href="#a"/></mask><path d="M1.047 7.994a.805.805 0 0 1-.78-1.017l1.585-5.77A.813.813 0 0 1 2.844.64c.43.119.683.561.566.989L1.825 7.402a.808.808 0 0 1-.778.592" fill="#FEFEFE" mask="url(#b)"/></g><path d="M32.577 10.866c6.755 0 12.226 5.454 12.226 12.186 0 6.733-5.471 12.194-12.226 12.194H16.219c-8.329 0-15.075-6.732-15.075-15.025 0-8.3 6.746-15.025 15.075-15.025 5.084 0 9.57 2.517 12.307 6.37 1.267-.45 2.63-.7 4.051-.7" fill="#FEFEFE"/><path d="M44.803 23.052c0 6.733-5.471 12.194-12.226 12.194H16.219c-8.329 0-15.075-6.732-15.075-15.025 0 0 3.534 6.57 11.387 9.947 2.766 1.19 6.881 1.698 10.442 1.776 5.44-.229 9.552-.567 12.76-1.843 6.635-2.64 9.07-7.049 9.07-7.049" fill="#E1E9F0"/><g transform="translate(0 3.408)"><mask id="d" fill="#fff"><use xlink:href="#c"/></mask><path d="M16.218 2.928c-7.682 0-13.931 6.23-13.931 13.886 0 7.656 6.25 13.884 13.931 13.884h16.36c6.11 0 11.081-4.958 11.081-11.054 0-6.09-4.97-11.045-11.082-11.045a10.9 10.9 0 0 0-3.667.633 1.145 1.145 0 0 1-1.318-.415 13.978 13.978 0 0 0-11.374-5.889m16.36 30.05h-16.36C7.276 32.978 0 25.727 0 16.814S7.276.649 16.218.649c4.964 0 9.664 2.295 12.734 6.177a13.194 13.194 0 0 1 3.625-.507c7.372 0 13.37 5.978 13.37 13.325 0 7.353-5.998 13.334-13.37 13.334" fill="#3C4349" mask="url(#d)"/></g><path d="M22.973 16.44v10.163" fill="#FEFEFE"/><path d="M22.973 27.81c-.668 0-1.21-.54-1.21-1.207V16.44a1.21 1.21 0 0 1 2.42 0v10.163a1.21 1.21 0 0 1-1.21 1.207" fill="#4A98CE"/><path d="M22.973 26.603l4.574-4.558" fill="#FEFEFE"/><path d="M22.973 27.81a1.206 1.206 0 0 1-.856-2.06l4.573-4.558a1.215 1.215 0 0 1 1.713 0 1.206 1.206 0 0 1 0 1.706l-4.574 4.559a1.209 1.209 0 0 1-.856.353" fill="#4A98CE"/><path d="M22.973 26.56L18.4 22.002" fill="#FEFEFE"/><path d="M22.973 27.767c-.31 0-.62-.118-.856-.354l-4.573-4.557a1.206 1.206 0 0 1 0-1.707 1.214 1.214 0 0 1 1.713 0l4.572 4.558a1.206 1.206 0 0 1-.856 2.06" fill="#4A98CE"/><path d="M34.029 7.826a.804.804 0 0 1-.51-1.429l2.26-1.825a.807.807 0 0 1 1.016 1.249l-2.259 1.825a.803.803 0 0 1-.507.18M27.074 5.19a.808.808 0 0 1-.781-.603l-.636-2.463a.804.804 0 0 1 .58-.98.813.813 0 0 1 .984.58l.636 2.462a.806.806 0 0 1-.783 1.005" fill="#FEFEFE"/></g></svg>