<svg width="50" height="42" viewBox="0 0 50 42" xmlns="http://www.w3.org/2000/svg" xmlns:xlink="http://www.w3.org/1999/xlink"><title>Page 1</title><defs><path id="a" d="M0 41.3h49.477V.597H0z"/></defs><g fill="none" fill-rule="evenodd"><path fill="#FEFEFE" d="M4.524 31.587H41.53V8.522H4.524z"/><path fill="#E0E7EE" d="M4.524 31.587h9.25V8.522h-9.25z"/><g transform="translate(0 .103)"><mask id="b" fill="#fff"><use xlink:href="#a"/></mask><path d="M5.565 30.435H40.49V9.47H5.565v20.965zm35.966 2.1H4.524c-.575 0-1.042-.47-1.042-1.05V8.419c0-.58.467-1.05 1.042-1.05H41.53c.575 0 1.041.47 1.041 1.05v23.066c0 .58-.466 1.05-1.041 1.05z" fill="#3C4349" mask="url(#b)"/><path fill="#AEBCC5" mask="url(#b)" d="M45.002 36.916H1.05l3.473-5.434h37.006z"/><path d="M2.96 35.866h40.132l-2.13-3.334H5.09l-2.13 3.334zm42.042 2.1H1.05c-.38 0-.731-.21-.913-.547a1.055 1.055 0 0 1 .038-1.072l3.472-5.433c.192-.3.522-.482.876-.482H41.53c.354 0 .684.181.875.482l3.473 5.433c.207.323.221.734.038 1.072a1.039 1.039 0 0 1-.914.547z" fill="#3C4349" mask="url(#b)"/><path d="M37.15 27.113H17.205a1.184 1.184 0 0 1-1.179-1.188v-11.95c0-.657.528-1.188 1.179-1.188H37.15c.651 0 1.179.531 1.179 1.187v11.951c0 .656-.528 1.188-1.179 1.188" fill="#E0E7EE" mask="url(#b)"/><path d="M28.745 20.42l-2.665 1.19a.51.51 0 0 1-.716-.468v-2.384c0-.371.38-.62.716-.47l2.665 1.193a.515.515 0 0 1 0 .938" fill="#4B96D1" mask="url(#b)"/><path fill="#AEBCC5" mask="url(#b)" d="M1.05 40.24h43.951v-3.324H1.05z"/><path d="M2.1 39.182h41.851v-1.207H2.101v1.207zM45.003 41.3H1.051A1.055 1.055 0 0 1 0 40.24v-3.324c0-.585.47-1.058 1.05-1.058h43.952c.58 0 1.05.473 1.05 1.058v3.325c0 .585-.47 1.059-1.05 1.059z" fill="#3C4349" mask="url(#b)"/><path d="M44.813 5.93a.693.693 0 0 1-.477-.19.706.706 0 0 1-.03-.99l2.907-3.113a.691.691 0 0 1 .982-.03.706.706 0 0 1 .03.99L45.319 5.71a.692.692 0 0 1-.506.22m-2.109-.82a.697.697 0 0 1-.695-.7V1.296c0-.387.31-.7.695-.7.384 0 .694.313.694.7v3.112c0 .387-.31.7-.694.7m6.079 3.009h-3.088a.697.697 0 0 1-.694-.7c0-.387.31-.7.694-.7h3.088c.384 0 .694.313.694.7 0 .387-.31.7-.694.7M11.748 13.35H7.813a.523.523 0 0 1-.521-.526c0-.29.233-.525.52-.525h3.936c.287 0 .52.235.52.525 0 .29-.233.525-.52.525m-1.042 2.684H7.813a.523.523 0 0 1-.521-.525c0-.29.233-.525.52-.525h2.894c.288 0 .521.235.521.525 0 .29-.233.525-.52.525m.636 2.683h-3.53a.523.523 0 0 1-.521-.525c0-.29.233-.525.52-.525h3.531c.288 0 .52.235.52.525 0 .29-.232.525-.52.525M9.78 21.4H7.814a.523.523 0 0 1-.521-.526c0-.29.233-.525.52-.525h1.969c.287 0 .52.235.52.525 0 .29-.233.525-.52.525m1.156 2.684H7.812a.523.523 0 0 1-.52-.525c0-.29.233-.525.52-.525h3.125c.288 0 .521.235.521.525 0 .29-.233.525-.52.525m.81 2.683H7.813a.523.523 0 0 1-.521-.525c0-.29.233-.525.52-.525h3.936c.287 0 .52.235.52.525 0 .29-.233.525-.52.525" fill="#FEFEFE" mask="url(#b)"/></g></g></svg>