<?xml version="1.0" standalone="no"?>
<!DOCTYPE svg PUBLIC "-//W3C//DTD SVG 1.1//EN" "http://www.w3.org/Graphics/SVG/1.1/DTD/svg11.dtd" >
<!--
2013-9-30: Created.
-->
<svg>
<metadata>
Created by iconfont
</metadata>
<defs>

<font id="iconfont" horiz-adv-x="1024" >
  <font-face
    font-family="iconfont"
    font-weight="500"
    font-stretch="normal"
    units-per-em="1024"
    ascent="896"
    descent="-128"
  />
    <missing-glyph />
    
    <glyph glyph-name="x" unicode="x" horiz-adv-x="1001"
d="M281 543q-27 -1 -53 -1h-83q-18 0 -36.5 -6t-32.5 -18.5t-23 -32t-9 -45.5v-76h912v41q0 16 -0.5 30t-0.5 18q0 13 -5 29t-17 29.5t-31.5 22.5t-49.5 9h-133v-97h-438v97zM955 310v-52q0 -23 0.5 -52t0.5 -58t-10.5 -47.5t-26 -30t-33 -16t-31.5 -4.5q-14 -1 -29.5 -0.5
t-29.5 0.5h-32l-45 128h-439l-44 -128h-29h-34q-20 0 -45 1q-25 0 -41 9.5t-25.5 23t-13.5 29.5t-4 30v167h911zM163 247q-12 0 -21 -8.5t-9 -21.5t9 -21.5t21 -8.5q13 0 22 8.5t9 21.5t-9 21.5t-22 8.5zM316 123q-8 -26 -14 -48q-5 -19 -10.5 -37t-7.5 -25t-3 -15t1 -14.5
t9.5 -10.5t21.5 -4h37h67h81h80h64h36q23 0 34 12t2 38q-5 13 -9.5 30.5t-9.5 34.5q-5 19 -11 39h-368zM336 498v228q0 11 2.5 23t10 21.5t20.5 15.5t34 6h188q31 0 51.5 -14.5t20.5 -52.5v-227h-327z" />
    

    
    <glyph glyph-name="forward" unicode="&#59357;" d="M880.17196 332.21587 550.338072 610.338328C529.230589 628.136575 512.130759 620.645345 512.130759 593.618964L512.130759 6.379513C512.130759-20.646868 529.236591-28.133088 550.338072-10.339851L880.17196 267.780937C901.279443 285.579185 901.272583 314.421798 880.17196 332.21587L880.17196 332.21587ZM496.041201 332.215182 166.207313 610.33764C145.09983 628.135887 128 620.644657 128 593.618276L128 6.378825C128-20.647556 145.105832-28.133775 166.207313-10.340538L496.041201 267.78025C517.148684 285.578497 517.141824 314.42111 496.041201 332.215182L496.041201 332.215182Z"  horiz-adv-x="1024" />

    
    <glyph glyph-name="expand3" unicode="&#59149;" d="M431.488094 208.576q0-7.424-5.728-13.152l-189.728-189.728 82.272-82.272q10.848-10.848 10.848-25.728t-10.848-25.728-25.728-10.848l-256 0q-14.848 0-25.728 10.848t-10.848 25.728l0 256q0 14.848 10.848 25.728t25.728 10.848 25.728-10.848l82.272-82.272 189.728 189.728q5.728 5.728 13.152 5.728t13.152-5.728l65.152-65.152q5.728-5.728 5.728-13.152zM877.792094 702.272l0-256q0-14.848-10.848-25.728t-25.728-10.848-25.728 10.848l-82.272 82.272-189.728-189.728q-5.728-5.728-13.152-5.728t-13.152 5.728l-65.152 65.152q-5.728 5.728-5.728 13.152t5.728 13.152l189.728 189.728-82.272 82.272q-10.848 10.848-10.848 25.728t10.848 25.728 25.728 10.848l256 0q14.848 0 25.728-10.848t10.848-25.728z"  horiz-adv-x="1025" />

    
    <glyph glyph-name="random" unicode="&#59491;" d="M380.64 537.152q-34.272-52.576-78.272-156-12.576 25.728-21.152 41.44t-23.136 36.288-29.152 32.288-36 20-46.56 8.288l-128 0q-8 0-13.152 5.152t-5.152 13.152l0 109.728q0 8 5.152 13.152t13.152 5.152l128 0q142.848 0 234.272-128.576zM1024.064 80.576q0-8-5.152-13.152l-182.848-182.848q-5.152-5.152-13.152-5.152-7.424 0-12.864 5.44t-5.44 12.864l0 109.728q-18.272 0-48.576-0.288t-46.272-0.576-41.728 0.576-40.576 2.848-36.576 6.016-36 10.56-33.152 16.288-33.728 22.848-31.424 30.56-32 39.712q33.728 53.152 77.728 156 12.576-25.728 21.152-41.44t23.136-36.288 29.152-32.288 36-20 46.56-8.288l146.272 0 0 109.728q0 8 5.152 13.152t13.152 5.152q6.848 0 13.728-5.728l182.272-182.272q5.152-5.152 5.152-13.152zM1024.064 592.576q0-8-5.152-13.152l-182.848-182.848q-5.152-5.152-13.152-5.152-7.424 0-12.864 5.44t-5.44 12.864l0 109.728-146.272 0q-27.424 0-49.728-8.576t-39.424-25.728-29.152-35.136-25.728-44.288q-18.272-35.424-44.576-97.728-16.576-37.728-28.288-63.424t-30.848-60-36.576-57.152-42.272-47.424-51.424-39.136-60.864-24-73.152-9.44l-128 0q-8 0-13.152 5.152t-5.152 13.152l0 109.728q0 8 5.152 13.152t13.152 5.152l128 0q27.424 0 49.728 8.576t39.424 25.728 29.152 35.136 25.728 44.288q18.272 35.424 44.576 97.728 16.576 37.728 28.288 63.424t30.848 60 36.576 57.152 42.272 47.424 51.424 39.136 60.864 24 73.152 9.44l146.272 0 0 109.728q0 8 5.152 13.152t13.152 5.152q6.848 0 13.728-5.728l182.272-182.272q5.152-5.152 5.152-13.152z"  horiz-adv-x="1025" />

    
    <glyph glyph-name="play" unicode="&#58998;" d="M139.692041 640.338339c0 47.862078 33.913391 67.442018 75.362408 43.51098l589.834716-340.541977c41.450041-23.931039 41.450041-63.09092 0-87.021959L215.053426-84.258641c-41.449018-23.931039-75.362408-4.351098-75.362408 43.51098L139.691017 640.338339z"  horiz-adv-x="1024" />

    
    <glyph glyph-name="backward" unicode="&#59789;" d="M470.5 628.4l-396.6-308.3c-13.3-10.3-13.3-30.4 0-40.7l396.6-307.9c16.9-13.1 41.5-1 41.5 20.4L512 608.1C512 629.5 487.4 641.6 470.5 628.4zM918.5 628.4 522 320.1c-13.3-10.3-13.3-30.4 0-40.7l396.6-307.9c16.9-13.1 41.5-1 41.5 20.4L960.1 608.1C960.1 629.5 935.4 641.6 918.5 628.4z"  horiz-adv-x="1024" />

    
    <glyph glyph-name="playerminimize" unicode="&#59396;" d="M568.496 368.175l-42.667 0 0-362.667 85.333 0L611.162 222.511l217.003-217.003 60.331 60.352L671.493 282.842l217.003 0 0 85.333L568.496 368.175zM405.333 766l0-217.003L188.331 766 128 705.648l216.981-216.981L128 488.667l0-85.333 320 0 42.667 0L490.667 766 405.333 766z"  horiz-adv-x="1024" />

    
    <glyph glyph-name="playerfull" unicode="&#59403;" d="M202.333 735.667l-42.667 0L159.666 373 245 373 245 590.003 462.003 373l60.331 60.352L305.331 650.333l217.003 0 0 85.333L202.333 735.666 202.333 735.667zM778.333 394.329l0-217.003L561.331 394.329 501 333.977l216.981-216.981L501 116.996l0-85.333 320 0 42.667 0L863.667 394.329 778.333 394.329z"  horiz-adv-x="1024" />

    
    <glyph glyph-name="pause" unicode="&#58884;" d="M376.069121 372.642325c-0.652869 101.369735-2.651386 257.390161 5.130857 312.954665 3.103688 22.162766 4.253884 44.582381 7.695263 66.695005 3.206018 20.603247 4.726651 25.284873 2.565429 33.347502-6.603395 24.625864-37.945217 44.929282-69.260433 43.608194-29.883611-1.260713-57.094346-22.102391-64.129576-46.173622-3.818979-13.06762-0.924045-24.455995 0-28.217668 9.680477-39.385009 11.583826-111.763456 15.391549-256.519328 0.925069-35.156708-0.983397-23.004947-2.565429-115.434056-2.229784-130.275066 3.466961-133.335774 0-205.215872 0-0.001023-0.860601-17.851577-15.391549-174.433798 0.004093 1.231037-0.824785-18.837021 0-25.65224 2.565429-21.209044 37.012985-45.232181 71.825862-43.608194 31.193443 1.455141 62.385862 23.485901 66.695005 48.739051 1.75497 10.281157-1.611707 17.200754-5.130857 28.217668-7.010671 21.950941-6.757914 35.532261-7.695263 89.781816C379.63432 191.370795 376.653429 281.991722 376.069121 372.642325zM629.382431 786.281109c3.26537 6.432503 11.335163 20.134573 27.576055 30.141484 18.286482 11.267625 35.969213 11.094686 44.249807 10.902304 26.050306-0.605797 61.432141-12.830213 67.336618-35.271318 0.458441-1.74269 0.686638-3.347235-1.282203-23.086811-1.923816-19.282159-2.8847-28.922726-4.489244-39.760562-5.099135-34.452673-12.373819-134.387733-13.467733-243.052618-0.110517-10.977006-0.073678-26.1291 0-56.434314 0.13303-54.540174 0.712221-141.273561 3.206018-248.824065 1.443885-62.22725-2.12029-86.50212 3.206018-114.792443 4.397147-23.351847 5.243421-47.316655 10.260691-70.542636 1.152243-5.333472 2.101871-9.275247 1.282203-14.749936-3.429099-22.904663-33.107025-41.003879-59.640332-44.249807-30.302143-3.706415-67.759243 10.583033-76.315106 37.195134-2.947122 9.165754-1.650593 17.107633-1.282203 19.23918 11.749602 67.998697 12.82612 251.388471 12.82612 251.389494 0.358157 70.781066 0.606821 54.633295 0.641613 91.065042 0.063445 66.48011 0.119727 126.184911-2.565429 199.444425-2.192945 59.821457-3.886517 65.191768-8.336876 169.302941C631.115911 738.662579 630.060883 767.105375 629.382431 786.281109z"  horiz-adv-x="1024" />

    
    <glyph glyph-name="circlestop" unicode="&#58996;" d="M509.102623-115.537102c-274.733074 0-497.447892 222.710741-497.447892 497.445854 0 274.732055 222.714818 497.445854 497.447892 497.445854 274.730017 0 497.444835-222.713799 497.444835-497.445854C1006.547458 107.17364 783.83264-115.537102 509.102623-115.537102zM509.102623 786.082107c-223.220305 0-404.175393-180.953051-404.175393-404.173355s180.955089-404.175393 404.175393-404.175393c223.219285 0 404.174374 180.955089 404.174374 404.175393S732.321909 786.082107 509.102623 786.082107zM633.463577 210.91053 384.74065 210.91053c-25.757404 0-46.638288 20.879864-46.638288 46.636249L338.102363 506.270725c0 25.756385 20.879864 46.636249 46.638288 46.636249l248.721908 0c25.756385 0 46.63523-20.879864 46.63523-46.636249l0-248.724965C680.098808 231.790394 659.219962 210.91053 633.463577 210.91053z"  horiz-adv-x="1024" />

    
    <glyph glyph-name="circleplay" unicode="&#58997;" d="M509.10161-115.538146c-274.731508 0-497.445883 222.711317-497.445883 497.445883 0 274.732528 222.714374 497.445883 497.445883 497.445883s497.445883-222.713355 497.445883-497.445883C1006.547493 107.173172 783.833118-115.538146 509.10161-115.538146zM509.10161 786.081307c-223.218841 0-404.17357-180.95269-404.17357-404.172551s180.954729-404.175608 404.17357-404.175608c223.21986 0 404.174589 180.954729 404.174589 404.175608S732.32147 786.081307 509.10161 786.081307zM657.070336 341.692065l-247.333365-155.039411-0.19771 0.314909c-1.762066-1.108807-3.607701-2.102454-5.520597-2.973805-0.07032-0.031593-0.13962-0.063186-0.20994-0.094779-1.869074-0.83772-3.800315-1.557222-5.789646-2.148314-0.138601-0.040765-0.276183-0.077453-0.415803-0.119238-0.857084-0.24459-1.724359-0.466759-2.601825-0.66345-0.149811-0.035669-0.300642-0.072358-0.45351-0.105989-0.980398-0.207901-1.970987-0.389306-2.973805-0.537079-0.156945-0.024459-0.318986-0.038727-0.47695-0.061147-0.836701-0.114142-1.677479-0.203825-2.527429-0.273125-0.263953-0.021402-0.528926-0.043822-0.795936-0.061147-1.003838-0.063186-2.012771-0.110065-3.033934-0.110065-25.754295 0-46.635138 20.880842-46.635138 46.637176l0 0 0 0L338.104747 537.359894l0 0c0.002038 25.755315 20.881861 46.636157 46.635138 46.636157 9.757098 0 18.809981-3.001322 26.297489-8.123441l245.61614-153.510725c14.005828-8.045988 23.445978-23.140241 23.445978-40.453128C680.099492 364.769121 670.846861 349.798181 657.070336 341.692065z"  horiz-adv-x="1024" />

    
    <glyph glyph-name="pausecircleoutline" unicode="&#59154;" d="M384 213.333333l85.333333 0L469.333333 554.666667 384 554.666667 384 213.333333zM512 810.666667C277.333333 810.666667 85.333333 618.666667 85.333333 384s192-426.666667 426.666667-426.666667c234.666667 0 426.666667 192 426.666667 426.666667S746.666667 810.666667 512 810.666667zM512 42.666667c-187.733333 0-341.333333 153.6-341.333333 341.333333s153.6 341.333333 341.333333 341.333333c187.733333 0 341.333333-153.6 341.333333-341.333333S699.733333 42.666667 512 42.666667zM554.666667 213.333333l85.333333 0L640 554.666667l-85.333333 0L554.666667 213.333333z"  horiz-adv-x="1024" />

    
    <glyph glyph-name="playerstop" unicode="&#59422;" d="M337.2032 47.77984c-19.79392 0-35.84 16.04608-35.84 35.84L301.3632 684.38016c0 19.79392 16.04608 35.84 35.84 35.84s35.84-16.04608 35.84-35.84l0-600.76032C373.0432 63.82592 356.98688 47.77984 337.2032 47.77984zM686.7968 47.77984c-19.79392 0-35.84 16.04608-35.84 35.84L650.9568 684.38016c0 19.79392 16.04608 35.84 35.84 35.84s35.84-16.04608 35.84-35.84l0-600.76032C722.6368 63.82592 706.59072 47.77984 686.7968 47.77984z"  horiz-adv-x="1024" />

    
    <glyph glyph-name="arrowsalt" unicode="&#58953;" d="M629.714286 128.685714 548.571429 47.542857 629.714286-33.6 662.628571-0.685714C667.047619 4.038095 672.380952 5.104762 678.628571 2.514286 684.571429-0.07619 687.542857-4.571429 687.542857-10.971429L687.542857-113.371429C687.542857-117.333333 686.095238-120.761905 683.2-123.657143 680.304762-126.552381 676.87619-128 672.914286-128L570.514286-128C564.114286-128 559.619048-124.952381 557.028571-118.857143 554.438095-112.914286 555.504762-107.657143 560.228571-103.085714L593.142857-70.171429 512 10.971429 430.857143-70.171429 463.771429-103.085714C468.495238-107.657143 469.561905-112.914286 466.971429-118.857143 464.380952-124.952381 459.885714-128 453.485714-128L351.085714-128C347.12381-128 343.695238-126.552381 340.8-123.657143 337.904762-120.761905 336.457143-117.333333 336.457143-113.371429L336.457143-10.971429C336.457143-4.571429 339.504762-0.07619 345.6 2.514286 351.542857 5.104762 356.8 4.038095 361.371429-0.685714L394.285714-33.6 475.428571 47.542857 394.285714 128.685714 361.371429 95.771429C358.47619 92.87619 355.047619 91.428571 351.085714 91.428571 349.257143 91.428571 347.428571 91.809524 345.6 92.571429 339.504762 95.161905 336.457143 99.657143 336.457143 106.057143L336.457143 208.457143C336.457143 212.419048 337.904762 215.847619 340.8 218.742857 343.695238 221.638095 347.12381 223.085714 351.085714 223.085714L453.485714 223.085714C459.885714 223.085714 464.380952 220.038095 466.971429 213.942857 469.561905 208 468.495238 202.742857 463.771429 198.171429L430.857143 165.257143 512 84.114286 593.142857 165.257143 560.228571 198.171429C555.504762 202.742857 554.438095 208 557.028571 213.942857 559.619048 220.038095 564.114286 223.085714 570.514286 223.085714L672.914286 223.085714C676.87619 223.085714 680.304762 221.638095 683.2 218.742857 686.095238 215.847619 687.542857 212.419048 687.542857 208.457143L687.542857 106.057143C687.542857 99.657143 684.571429 95.161905 678.628571 92.571429 676.647619 91.809524 674.742857 91.428571 672.914286 91.428571 668.952381 91.428571 665.52381 92.87619 662.628571 95.771429ZM629.714286 128.685714"  horiz-adv-x="1024" />

    
    <glyph glyph-name="compress" unicode="&#59047;" d="M515.536 347.424l0-256q0-14.848-10.848-25.728t-25.728-10.848-25.728 10.848l-82.272 82.272-189.728-189.728q-5.728-5.728-13.152-5.728t-13.152 5.728l-65.152 65.152q-5.728 5.728-5.728 13.152t5.728 13.152l189.728 189.728-82.272 82.272q-10.848 10.848-10.848 25.728t10.848 25.728 25.728 10.848l256 0q14.848 0 25.728-10.848t10.848-25.728zM946.96 731.424q0-7.424-5.728-13.152l-189.728-189.728 82.272-82.272q10.848-10.848 10.848-25.728t-10.848-25.728-25.728-10.848l-256 0q-14.848 0-25.728 10.848t-10.848 25.728l0 256q0 14.848 10.848 25.728t25.728 10.848 25.728-10.848l82.272-82.272 189.728 189.728q5.728 5.728 13.152 5.728t13.152-5.728l65.152-65.152q5.728-5.728 5.728-13.152z"  horiz-adv-x="1024" />

    
    <glyph glyph-name="icpausecircleo" unicode="&#58901;" d="M512 768c211.2 0 384-172.8 384-384s-172.8-384-384-384-384 172.8-384 384S300.8 768 512 768M512 832C262.4 832 64 633.6 64 384c0-249.6 198.4-448 448-448s448 198.4 448 448C960 633.6 761.6 832 512 832L512 832zM384 128 384 128c-38.4 0-64 25.6-64 64L320 576c0 38.4 25.6 64 64 64l0 0c38.4 0 64-25.6 64-64l0-384C448 153.6 422.4 128 384 128zM640 128 640 128c-38.4 0-64 25.6-64 64L576 576c0 38.4 25.6 64 64 64l0 0c38.4 0 64-25.6 64-64l0-384C704 153.6 678.4 128 640 128z"  horiz-adv-x="1024" />

    
    <glyph glyph-name="icfastbackward" unicode="&#58914;" d="M128 0 128 0c-38.4 0-64 25.6-64 64L64 704c0 38.4 25.6 64 64 64l0 0c38.4 0 64-25.6 64-64l0-640C192 25.6 166.4 0 128 0zM249.6 435.2l217.6 185.6C512 652.8 576 620.8 576 569.6l0-364.8c0-57.6-64-83.2-102.4-51.2L249.6 332.8C217.6 358.4 217.6 409.6 249.6 435.2zM633.6 435.2l217.6 185.6C896 652.8 960 620.8 960 569.6l0-364.8c0-57.6-64-83.2-102.4-51.2L633.6 332.8C601.6 358.4 601.6 409.6 633.6 435.2z"  horiz-adv-x="1024" />

    
    <glyph glyph-name="icfastforward" unicode="&#58915;" d="M896 768 896 768c38.4 0 64-25.6 64-64l0-640c0-38.4-25.6-64-64-64l0 0c-38.4 0-64 25.6-64 64L832 704C832 742.4 857.6 768 896 768zM774.4 332.8l-217.6-185.6C512 115.2 448 147.2 448 198.4L448 569.6c0 57.6 64 83.2 102.4 51.2l217.6-185.6C806.4 409.6 806.4 358.4 774.4 332.8zM390.4 332.8l-217.6-185.6C128 115.2 64 147.2 64 198.4L64 569.6c0 57.6 64 83.2 102.4 51.2l217.6-185.6C422.4 409.6 422.4 358.4 390.4 332.8z"  horiz-adv-x="1024" />

    
    <glyph glyph-name="icstepbackward" unicode="&#58916;" d="M256 0 256 0c-38.4 0-64 25.6-64 64L192 704c0 38.4 25.6 64 64 64l0 0c38.4 0 64-25.6 64-64l0-640C320 25.6 294.4 0 256 0zM377.6 428.8l352 307.2C768 774.4 832 748.8 832 691.2l0-614.4c0-57.6-64-83.2-108.8-44.8L377.6 339.2C345.6 358.4 345.6 409.6 377.6 428.8z"  horiz-adv-x="1024" />

    
    <glyph glyph-name="icstepforward" unicode="&#58917;" d="M768 768 768 768c38.4 0 64-25.6 64-64l0-640c0-38.4-25.6-64-64-64l0 0c-38.4 0-64 25.6-64 64L704 704C704 742.4 729.6 768 768 768zM646.4 339.2l-352-307.2C256-6.4 192 19.2 192 76.8L192 691.2c0 57.6 64 83.2 108.8 44.8l352-307.2C678.4 409.6 678.4 358.4 646.4 339.2z"  horiz-adv-x="1024" />

    
    <glyph glyph-name="icplaycircleo" unicode="&#58944;" d="M512 768c211.2 0 384-172.8 384-384s-172.8-384-384-384-384 172.8-384 384S300.8 768 512 768M512 832C262.4 832 64 633.6 64 384c0-249.6 198.4-448 448-448s448 198.4 448 448C960 633.6 761.6 832 512 832L512 832zM320 192 320 576c0 51.2 57.6 83.2 102.4 51.2l256-192c32-25.6 32-76.8 0-102.4l-256-192C377.6 108.8 320 140.8 320 192zM448 448l0-128 83.2 64L448 448z"  horiz-adv-x="1024" />

    
    <glyph glyph-name="player" unicode="&#58931;" d="M511.990793 831.737606c-248.413602 0-447.392863-196.874997-447.392863-445.007281 0-248.131261 198.980284-450.466909 447.392863-450.466909 248.430993 0 447.411277 202.357131 447.411277 450.466909C959.40207 634.845219 760.421786 831.737606 511.990793 831.737606L511.990793 831.737606zM511.410765 3.945622c-211.359329 0-380.231353 172.391065-380.231353 383.493626 0 211.119952 168.851564 377.826334 380.231353 377.826334 211.362398 0 380.213962-166.707405 380.213962-377.826334C891.607337 176.336687 722.773163 3.945622 511.410765 3.945622L511.410765 3.945622zM469.441087 547.378637c-8.500939 7.14038-23.211349 7.14038-31.712288 0l0-327.655449c8.500939-7.156747 23.211349-7.156747 31.712288 0l186.174657 151.216464c8.484571 7.139357 8.484571 18.719457 0 25.858813L469.441087 547.378637 469.441087 547.378637zM469.441087 547.378637"  horiz-adv-x="1024" />

    
    <glyph glyph-name="Stop" unicode="&#58990;" d="M106.666667 789.333333v-810.666666h810.666666V789.333333H106.666667z m768-768H149.333333V746.666667h725.333334v-725.333334z"  horiz-adv-x="1024" />

    
    <glyph glyph-name="ic_player_menu" unicode="&#59380;" d="M232.530984 616.890164h558.937009c25.723871 0 46.577828 20.853957 46.577828 46.577829s-20.853957 46.577828-46.577828 46.577828H232.530984c-25.723871 0-46.577828-20.853957-46.577828-46.577828s20.853957-46.577828 46.577828-46.577829zM791.467993 151.109836H232.530984c-25.723871 0-46.577828-20.853957-46.577828-46.577829s20.853957-46.577828 46.577828-46.577828h558.937009c25.723871 0 46.577828 20.853957 46.577828 46.577828 0.001023 25.723871-20.852934 46.577828-46.577828 46.577829zM915.676899 430.267766H108.323101c-25.723871 0-46.577828-20.853957-46.577828-46.577828s20.853957-46.577828 46.577828-46.577828h807.353798c25.723871 0 46.577828 20.853957 46.577828 46.577828s-20.853957 46.577828-46.577828 46.577828z"  horiz-adv-x="1024" />

    
    <glyph glyph-name="player_forward" unicode="&#58886;" d="M813.176471 399.058824L90.352941-97.882353V896zM813.176471 835.764706h120.470588v-843.294118h-120.470588z"  horiz-adv-x="1024" />

    
    <glyph glyph-name="player_back" unicode="&#58887;" d="M210.823529 399.058824L933.647059 896v-993.882353zM90.352941 835.764706h120.470588v-843.294118H90.352941z"  horiz-adv-x="1024" />

    
    <glyph glyph-name="player-close" unicode="&#58910;" d="M408.064 384l126.72 126.72-36.2496 36.1984L335.616 384l162.9184-162.9184 36.2496 36.1984L408.064 384z m153.6 0l126.72 126.72-36.2496 36.1984L489.216 384l162.9184-162.9184 36.2496 36.1984L561.664 384z"  horiz-adv-x="1024" />

    


  </font>
</defs>
</svg>
